<svg xmlns="http://www.w3.org/2000/svg"><style>:root svg:not(:target){display:none}</style><svg fill="none" id="banner-corner" viewBox="0 0 1201 57"><g clip-path="url(#banner-corner_1anner-corner_0)"><g filter="url(#banner-corner_1)"><path d="M249.829 23.7 0 0v57h600.55L249.829 0v23.7Z" fill="#fff"></path></g><path d="M951.271 23.7V0L600.55 57H1201V0L951.271 23.7Z" fill="#fff"></path></g><defs><clipPath id="banner-corner_0"><path fill="#fff" d="M0 0h1201v57H0z"></path></clipPath><filter id="banner-corner_1" x="-4" y="0" width="608.55" height="65" filterUnits="userSpaceOnUse" color-interpolation-filters="sRGB"><feFlood flood-opacity="0" result="BackgroundImageFix"></feFlood><feColorMatrix in="SourceAlpha" values="0 0 0 0 0 0 0 0 0 0 0 0 0 0 0 0 0 0 127 0" result="hardAlpha"></feColorMatrix><feOffset dy="4"></feOffset><feGaussianBlur stdDeviation="2"></feGaussianBlur><feComposite in2="hardAlpha" operator="out"></feComposite><feColorMatrix values="0 0 0 0 0 0 0 0 0 0 0 0 0 0 0 0 0 0 0.25 0"></feColorMatrix><feBlend in2="BackgroundImageFix" result="effect1_dropShadow_66189_1019"></feBlend><feBlend in="SourceGraphic" in2="effect1_dropShadow_66189_1019" result="shape"></feBlend></filter></defs></svg><svg fill="none" id="banner-text" viewBox="0 0 282 214"><path d="m101.385 42.804-.123.123c-.859.917-1.84 1.345-2.761 1.345l1.718-2.996c1.105-1.896.061-3.73-1.657-3.73-1.412 0-2.516.55-3.56 2.384l-.92 1.59-.737 1.284-.122.123c-1.35 1.529-2.64 2.752-3.437 2.752-.43 0-.614-.306-.184-.979l3.927-6.849h1.473l.553-.856H94.02L95.74 34h-1.841l-1.719 2.996h-1.657l-.552.856h1.657l-3.682 6.36c-.798 1.345-.246 2.63 1.227 2.63 1.044 0 2.27-.796 3.376-1.896 0 2.323 3.252 2.813 5.216.305h.43c1.104 0 2.823-.672 3.743-1.773 0-.306-.307-.55-.552-.673Zm-3.928.123h-.061c-.614 0-1.105.489-1.105 1.1 0 .245.062.428.184.612v.061c-.859 1.468-2.945 1.223-1.902-.734l1.411-2.385.86-1.467c1.288-2.201 3.068-1.345 1.963.55l-1.35 2.263ZM126.854 42.804l-.123.122c-1.35 1.53-3.007 2.752-4.296 2.752-1.104 0-1.779-.734-.982-2.201l.184-.306c1.166.49 3.437.245 4.787-2.14l.246-.428c.982-1.712.061-2.935-1.473-2.935-1.473 0-2.639.795-3.437 2.14l-1.78 3.057-.122.123c-1.35 1.528-2.639 2.751-3.437 2.751-.43 0-.614-.305-.184-.978l2.639-4.647c.798-1.407.061-2.385-.982-2.385-.798 0-1.657.428-2.578 1.406l2.946-5.075h-1.841l-5.094 8.744-.123.122c-1.35 1.53-2.639 2.752-3.436 2.752-.43 0-.614-.305-.185-.978l3.928-6.849h1.473l.552-.856h-1.534l1.719-2.996h-1.842l-1.718 2.996h-1.657l-.552.856h1.657l-3.683 6.36c-.797 1.345-.245 2.63 1.228 2.63.736 0 1.534-.368 2.332-.98l-.491.796h1.841l2.762-4.831c2.823-3.547 4.05-3.058 3.314-1.712l-2.394 4.158c-.797 1.345-.245 2.63 1.228 2.63 1.105 0 2.332-.857 3.437-1.958.061 1.162 1.043 1.957 2.516 1.957 2.086 0 4.173-1.59 5.646-3.363.061-.367-.246-.611-.491-.734Zm-3.498-2.568c1.043-1.834 2.946-1.529 1.841.367l-.246.428c-.859 1.468-2.086 1.468-2.761 1.223l1.166-2.018ZM193.81 42.804l-.123.123c-.675.795-1.473 1.467-2.209 2.018.613-1.774.429-4.403 1.595-6.788l-1.35-.734c-.736 1.04-2.393 3.425-4.112 5.381l-.123.123c-1.35 1.528-2.639 2.751-3.436 2.751-.43 0-.614-.305-.184-.978l3.927-6.849h-1.841l-3.253 5.687c-1.411 1.284-2.454 1.957-2.823 1.835-.429-.184 0-.856.246-1.284l3.559-6.238h-1.841l-2.884 4.953-.123.123c-.859.917-1.841 1.345-2.762 1.345l1.719-2.996c1.104-1.896.061-3.73-1.657-3.73-1.412 0-2.516.55-3.56 2.384l-.92 1.59-.737 1.284-.122.123c-1.351 1.528-3.008 2.751-4.296 2.751-1.105 0-1.78-.733-.982-2.2l.184-.307c1.166.49 3.436.245 4.787-2.14l.245-.428c.982-1.712.062-2.935-1.473-2.935-1.473 0-2.639.795-3.437 2.14l-1.779 3.058-.123.122c-1.534 1.773-2.823 2.874-4.296 3.485l4.112-7.032h-1.105c0-.734-.798-1.773-1.902-1.773-.982 0-2.394.795-3.13 2.14l-1.78 3.058-.123.122c-1.35 1.529-2.639 2.752-3.437 2.752-.429 0-.613-.306-.184-.979l1.841-3.18c.614-1.1.307-1.773-.245-2.507l-1.043-1.223c-.246-.305-.246-.733.122-1.04l-.982-1.039c-1.043.918-1.104 1.957-.49 2.813l.184.184c-.798 1.161-1.903 2.69-3.13 4.097l-.123.122c-.859.917-1.841 1.345-2.762 1.345l1.719-2.996c1.104-1.896.061-3.73-1.657-3.73-1.412 0-2.517.55-3.56 2.385l-.92 1.59-.737 1.284-.123.122c-1.534 1.773-2.823 2.874-4.296 3.485l4.112-7.032h-1.104c0-.734-.798-1.773-1.903-1.773-.982 0-2.393.795-3.13 2.14l-2.577 4.464c-.798 1.345-.246 2.63 1.227 2.63.491 0 1.105-.245 1.78-.612l-.491.856c-2.455.734-4.051 1.773-4.051 3.119 0 1.773 2.701 2.14 4.051-.123l1.411-2.385c1.473-.427 2.885-1.345 4.419-2.751 0 2.324 3.253 2.813 5.217.306h.429c1.105 0 2.823-.673 3.744-1.774.859-1.04 1.595-1.957 3.068-3.913l.246.305c.245.306.307.673.123 1.04l-1.964 3.363c-.798 1.345-.246 2.63 1.227 2.63.921 0 1.964-.612 2.946-1.468 0 .856.552 1.468 1.596 1.468.491 0 1.104-.245 1.779-.612l-.429.734c-2.455.734-4.051 1.773-4.051 3.118 0 1.774 2.701 2.14 4.051-.122l1.411-2.385c1.473-.489 2.946-1.345 4.48-2.813.062 1.162.982 1.957 2.517 1.957 1.472 0 3.007-.856 4.234-1.957-.061 2.385 3.253 2.874 5.217.367h.429c.553 0 1.35-.183 2.026-.55-.491 1.284-.062 2.14.981 2.14.982 0 2.148-.917 3.008-1.773-.184.978.429 1.773 1.595 1.773 1.535 0 3.253-1.59 4.787-3.363 1.044-1.223 1.964-2.507 2.639-3.363-.736 1.896-.307 5.32-2.086 5.32-.614 0-.86-.673-.86-.673l-1.166.612s.307 1.467 2.026 1.467c.184 0 .306 0 .491-.06h.061c1.902-.245 3.744-1.713 5.094-3.303-.062-.306-.368-.611-.675-.673Zm-26.329-2.568c1.044-1.834 2.946-1.529 1.842.367l-.246.428c-.859 1.468-2.086 1.468-2.762 1.223l1.166-2.018Zm-35.104 9.54c-.368.672-.982.61-.982.06 0-.489.43-1.039 1.841-1.59l-.859 1.53Zm.859-4.098c-.429 0-.613-.305-.184-.978l2.578-4.464c.982-1.712 2.946-1.284 2.025.367l-1.411 2.446c-1.105 1.773-2.271 2.63-3.008 2.63Zm11.293-2.751h-.062c-.613 0-1.104.489-1.104 1.1 0 .245.061.428.184.612v.061c-.859 1.468-2.946 1.223-1.903-.734l1.412-2.385.859-1.467c1.289-2.201 3.069-1.345 1.964.55l-1.35 2.263Zm11.537 6.848c-.368.673-.981.612-.981.062 0-.49.429-1.04 1.841-1.59l-.86 1.528Zm.86-4.097c-.43 0-.614-.305-.184-.978l2.577-4.464c.982-1.712 2.946-1.284 2.025.367l-1.411 2.446c-1.105 1.773-2.271 2.63-3.007 2.63Zm18.104-2.751h-.061c-.614 0-1.105.489-1.105 1.1 0 .245.061.428.184.612v.061c-.859 1.468-2.946 1.223-1.902-.734l1.411-2.385.859-1.467c1.289-2.201 3.069-1.345 1.964.55l-1.35 2.263ZM79.844 40.847H62.107v1.223h17.737v-1.223ZM219.156 40.847H201.42v1.223h17.736v-1.223Z" fill="#766458"></path><path d="M100.035 0h4.725l-.736 27.456h-8.899l-1.227-11.313-1.228 11.313h-8.96L83.035 0H87.7l.368 22.747h.492L91.566 0h4.664l3.007 22.747h.491L100.035 0ZM119.551 22.747v4.77h-12.827V0h12.827v4.708h-8.163v6.605h6.506v4.708h-6.506v6.665h8.163v.061ZM132.684 22.747v4.77h-11.231V0h4.665v22.747h6.566ZM142.626 17.366l4.726-1.1v8.316c0 1.59-1.35 2.874-2.885 2.874h-7.057c-1.596 0-2.885-1.345-2.885-2.874V2.874A2.876 2.876 0 0 1 137.41 0h7.057c1.535 0 2.885 1.284 2.885 2.874v5.565l-4.726 1.1V4.647h-3.375v18.04h3.375v-5.32ZM160.117 0c1.534 0 2.884 1.284 2.884 2.874v21.647c0 1.59-1.35 2.874-2.884 2.874h-7.058c-1.595 0-2.884-1.345-2.884-2.874V2.874A2.876 2.876 0 0 1 153.059 0h7.058Zm-1.841 4.708h-3.375v18.04h3.375V4.707ZM178.344 0h4.665v27.456h-4.665V13.942l-1.902 6.971h-4.603l-1.841-6.971v13.514h-4.664V0h4.664l4.173 13.27L178.344 0ZM198.167 22.747v4.77h-12.826V0h12.826v4.708h-8.162v6.605h6.505v4.708h-6.505v6.665h8.162v.061Z" fill="#81B3D3"></path><path d="M27.187 96.372c-2.209-1.834-4.97-3.057-7.917-3.057-2.209 0-5.093 1.284-5.093 3.852 0 2.69 3.252 3.73 5.278 4.342l3.068.917c6.383 1.896 11.354 5.075 11.354 12.474 0 4.525-1.105 9.234-4.726 12.291-3.62 3.058-8.408 4.281-13.01 4.281-5.77 0-11.477-1.957-16.141-5.198l4.971-9.478c3.007 2.63 6.505 4.709 10.617 4.709 2.823 0 5.77-1.407 5.77-4.587 0-3.363-4.665-4.464-7.243-5.197-7.487-2.202-12.397-4.097-12.397-12.964 0-9.295 6.628-15.348 15.834-15.348 4.603 0 10.31 1.467 14.361 3.79l-4.726 9.173ZM56.216 94.66v7.644h13.44v10.089h-13.44v7.889h14.238v10.089H44.31v-45.74h26.144v10.09l-14.238-.06ZM79.291 84.632H96.23c12.765 0 23.321 10.028 23.321 22.87 0 12.841-10.617 22.869-23.321 22.869H79.29v-45.74Zm11.968 35.65h2.7c7.119 0 13.195-3.914 13.195-12.78 0-8.194-5.401-12.78-13.072-12.78h-2.823v25.56ZM175.951 106.645c0 14.798-10.679 25.255-25.408 25.255-14.729 0-25.407-10.457-25.407-25.255 0-13.82 12.212-23.542 25.407-23.542s25.408 9.723 25.408 23.542Zm-38.418.061c0 7.889 5.83 13.637 12.949 13.637s12.949-5.748 12.949-13.637c0-6.298-5.83-12.107-12.949-12.107-7.058 0-12.949 5.809-12.949 12.107ZM182.272 84.632h11.967l21.848 28.006h.123V84.632h11.968v45.739H216.21l-21.848-28.067h-.123v28.067h-11.967v-45.74ZM249.842 122.422l-3.192 7.949h-12.642l17.675-45.74h13.01L282 130.372h-12.704l-3.007-7.949h-16.447Zm8.346-23.665h-.123l-4.909 14.554h9.942l-4.91-14.554ZM66.22 175.926c4.725-1.59 5.032-7.46.43-7.46-1.29 0-2.824.917-3.867 2.69l-6.26 10.824c-.307.489-.552.917-.92 1.345-1.596-2.201-1.167-5.504 1.104-6.971l-.92-1.162c-4.91 3.119-3.437 12.046 4.725 12.046 6.935 0 10.188-8.316 5.708-11.312Zm-5.77 9.539c-1.41 0-2.454-.306-3.375-.795.43-.489.798-1.039 1.166-1.651l3.928-6.787.614.061c5.462 1.162 3.314 9.172-2.332 9.172Zm2.517-10.579 1.902-3.241c1.719-2.935 3.867-1.223 2.7.979-.92 1.712-2.209 2.201-4.602 2.262Z" fill="#fff"></path><path d="M85.92 183.448c-.369 1.346.368 2.507 1.902 2.507.92 0 2.087-.611 3.253-1.528.123.917.859 1.528 2.025 1.528 1.227 0 2.578-.856 3.928-2.079-.246 1.223.307 2.079 1.473 2.079 1.288 0 2.7-1.161 3.805-2.201-.246 1.223.491 2.201 1.964 2.201 1.902 0 4.111-2.079 6.075-4.28 0-.061-.061-.061-.061-.122 1.289-1.468 2.393-3.058 3.253-4.159-.921 2.385-.43 6.727-2.639 6.727-.798 0-1.105-.856-1.105-.856l-1.473.734s.43 1.895 2.578 1.895c.245 0 .429 0 .675-.061h.061c1.718-.245 3.375-1.284 4.848-2.568.062 1.529 1.228 2.629 3.13 2.629 2.639 0 5.278-2.079 7.181-4.28-.184-.306-.553-.673-.859-.795l-.185.183c-1.657 1.957-3.805 3.486-5.462 3.486-1.411 0-2.27-.917-1.227-2.752l.245-.428c1.473.611 4.296.306 6.076-2.691l.307-.55c1.227-2.14.061-3.73-1.841-3.73-1.903 0-3.376.978-4.357 2.691l-2.271 3.852h-.062l-.184.183c-.859.979-1.902 1.896-2.823 2.508.737-2.202.553-5.626 2.026-8.561l-1.719-.918c-.982 1.346-3.068 4.342-5.155 6.788l.061.061-.061.122c-1.657 1.957-3.314 3.486-4.357 3.486-.491 0-.798-.367-.246-1.284l4.971-8.683h-2.332l-4.112 7.215c-1.78 1.59-3.13 2.507-3.56 2.324-.552-.245 0-1.101.308-1.59l4.541-7.888h-2.332l-3.682 6.359c-.062-.061-.123-.061-.184-.122l-.185.183c-1.657 1.957-3.314 3.486-4.357 3.486-.49 0-.798-.367-.245-1.284l3.743-6.543h-1.35c.061-.979-.92-2.324-2.455-2.324-1.227 0-3.007.979-3.989 2.691l-2.332 4.036c-.123-.123-.246-.184-.368-.245l-.184.183c-1.657 1.957-3.805 3.486-5.462 3.486-1.412 0-2.271-.917-1.228-2.752l2.394-4.158c1.35-2.324 3.743-1.896 2.332.489l-.307.551h1.902l.307-.551c1.228-2.14.062-3.73-1.84-3.73-1.903 0-3.376.979-4.358 2.691l-2.332 3.974c-.062-.061-.123-.061-.184-.122l-.184.184c-1.657 1.956-3.806 3.485-5.463 3.485-1.411 0-2.27-.917-1.227-2.752l.246-.428c1.472.612 4.296.306 6.075-2.69l.307-.551c1.228-2.14.062-3.73-1.841-3.73s-3.375.979-4.357 2.691l-2.455 4.158c-1.473 2.446-.184 4.77 2.577 4.77 2.026 0 4.112-1.223 5.77-2.813-.062 1.59 1.165 2.813 3.13 2.813 1.963-.123 3.866-1.223 5.523-2.63Zm35.595-5.87c1.35-2.324 3.743-1.896 2.332.489l-.307.55c-1.105 1.896-2.639 1.835-3.498 1.529l1.473-2.568Zm-33.263 5.687 3.252-5.626c1.228-2.14 3.744-1.59 2.578.489l-1.841 3.18c-1.412 2.201-2.823 3.241-3.744 3.241-.49-.061-.798-.367-.245-1.284ZM73.4 177.578c1.35-2.324 3.743-1.896 2.332.489l-.307.55c-1.105 1.896-2.639 1.835-3.498 1.529l1.473-2.568ZM152.323 185.954c2.639 0 5.278-2.079 7.18-4.28-.184-.306-.552-.673-.859-.795l-.184.183c-1.657 1.957-3.805 3.486-5.462 3.486-1.411 0-2.271-.918-1.227-2.752l.245-.428c1.473.611 4.296.306 6.076-2.691l.307-.55c1.227-2.14.061-3.73-1.841-3.73-1.903 0-3.376.978-4.358 2.69l-2.27 3.853s-.062 0-.062-.061l-.184.183c-1.657 1.957-3.314 3.486-4.357 3.486-.491 0-.798-.367-.246-1.285l3.376-5.87c.982-1.773.061-3.057-1.228-3.057-.982 0-2.086.55-3.252 1.773l3.743-6.421h-2.393l-6.567 11.313c-.061-.061-.184-.122-.245-.184l-.185.184c-1.657 1.957-3.314 3.485-4.357 3.485-.491 0-.798-.366-.245-1.284l4.971-8.683h1.902l.675-1.101h-1.902l2.209-3.791h-2.332l-2.209 3.791h-2.087l-.675 1.101h2.148l-4.664 8.072c-.982 1.712-.307 3.302 1.595 3.302 1.166 0 2.394-.734 3.683-1.835l-.921 1.59h2.332l3.56-6.115c3.559-4.464 5.155-3.913 4.173-2.201l-3.007 5.259c-.982 1.712-.307 3.302 1.595 3.302 1.412 0 3.008-1.101 4.48-2.568 0 1.528 1.167 2.629 3.069 2.629Zm1.903-8.377c1.35-2.324 3.743-1.896 2.332.489l-.307.55c-1.105 1.896-2.639 1.835-3.498 1.529l1.473-2.568ZM222.9 180.879l-.184.184c-1.657 1.956-3.314 3.485-4.358 3.485-.491 0-.797-.367-.245-1.284l7.855-13.575h-2.332l-3.437 5.87c-.429-.673-1.166-1.223-2.148-1.223-1.227 0-3.007.979-3.989 2.691l-2.27 3.913c-.062 0-.123-.061-.123-.061l-.184.184c-1.657 1.956-3.314 3.485-4.358 3.485-.491 0-.797-.367-.245-1.284l3.375-5.87c.982-1.774.062-3.058-1.227-3.058-.982 0-2.087.55-3.253 1.712l.859-1.528h-2.332l-3.743 6.42c-.062-.061-.123-.122-.246-.122l-.184.183c-1.657 1.957-3.314 3.486-4.357 3.486-.491 0-.798-.367-.246-1.284l3.744-6.543h-1.166c.061-.979-.921-2.324-2.455-2.324-1.227 0-3.007.979-3.989 2.691l-2.271 3.852-.123.122c-1.657 1.957-3.314 3.486-4.357 3.486-.491 0-.798-.367-.245-1.284l2.332-4.036c.798-1.407.429-2.201-.307-3.119l-1.289-1.59c-.307-.428-.307-.917.123-1.345l-1.228-1.345c-1.35 1.162-1.411 2.507-.613 3.547l.184.244c-1.044 1.468-2.394 3.424-3.928 5.198l.184.183c-1.902 2.202-3.559 3.608-5.4 4.403l2.945-5.014h-2.27l-.246.428c-1.227 2.14-2.639 3.73-4.48 3.73-1.596 0-1.902-1.59-.491-3.975l.675-1.162c.43.062.859.123 1.35.123 8.285 0 12.275-11.068 4.971-11.068-1.288 0-2.823.917-3.866 2.69l-3.621 6.237c-1.35-.733-2.087-2.017-2.087-3.302 0-1.1.491-2.14 1.473-2.935l-.736-1.345c-1.657 1.162-2.394 2.752-2.394 4.342 0 1.834 1.044 3.607 2.946 4.586l-.675 1.223c-1.657 2.813-1.35 5.931 1.964 5.931a4.69 4.69 0 0 0 2.516-.734l-.613 1.04c-3.13.978-5.094 2.201-5.094 3.975 0 2.201 3.437 2.69 5.094-.184l1.779-3.057c2.394-.734 4.787-2.385 7.365-5.381-.062-.062-.062-.123-.123-.245 1.043-1.223 1.903-2.385 3.682-4.77l.307.367c.307.367.43.856.123 1.346l-2.455 4.28c-.982 1.712-.307 3.302 1.596 3.302 1.166 0 2.455-.734 3.682-1.834 0 1.039.675 1.834 2.025 1.834.921 0 2.087-.611 3.253-1.529.123.918.859 1.529 2.025 1.529 1.105 0 2.332-.673 3.498-1.712l-.859 1.467h2.332l3.56-6.176c3.559-4.464 5.155-3.852 4.112-2.14l-3.008 5.259c-.981 1.712-.306 3.302 1.596 3.302 1.227 0 2.578-.856 3.928-2.018-.123 1.162.614 2.018 2.025 2.018.921 0 2.087-.611 3.253-1.529.122.918.859 1.529 2.025 1.529 1.902 0 4.112-2.079 6.076-4.28-.246-.123-.675-.49-.982-.612Zm-47.808-8.683c.675-1.162 1.473-1.712 2.086-1.712 3.683 0 1.105 7.521-4.971 7.521h-.491l3.376-5.809Zm-4.971 17.489c-.491.856-1.289.733-1.289.122 0-.612.552-1.284 2.332-1.957l-1.043 1.835Zm24.364-8.439c-1.412 2.201-2.823 3.241-3.744 3.241-.491 0-.797-.367-.245-1.284l3.253-5.626c1.227-2.14 3.743-1.59 2.577.489l-1.841 3.18Zm22.523-.122c-1.411 2.323-2.823 3.363-3.805 3.363-.491 0-.798-.367-.245-1.284l3.252-5.626c1.228-2.14 3.744-1.59 2.578.489l-1.78 3.058ZM145.143 202.893l-.184.183c-1.657 1.957-3.314 3.485-4.358 3.485-.491 0-.798-.366-.245-1.284l3.375-5.87c.982-1.773.062-3.057-1.227-3.057-.982 0-2.087.55-3.253 1.712l.859-1.529h-2.332l-3.743 6.482c-.123-.061-.185-.122-.307-.184l-.184.184c-1.044 1.162-2.333 1.712-3.499 1.712l2.21-3.791c1.411-2.446.123-4.709-2.087-4.709-1.78 0-3.191.734-4.541 3.058l-1.166 1.957-.982 1.712c-.062-.061-.123-.061-.184-.123l-.184.184c-1.903 2.201-3.56 3.608-5.401 4.403l6.382-10.885h-2.332l-4.112 7.154c-1.779 1.652-3.191 2.569-3.62 2.385-.553-.244 0-1.1.306-1.59l4.542-7.888h-2.332l-3.744 6.421c-.061-.061-.123-.061-.184-.122l-.184.183c-1.657 1.957-3.314 3.485-4.357 3.485-.491 0-.798-.366-.246-1.284l3.376-5.87c.981-1.773.061-3.057-1.228-3.057-.982 0-2.087.55-3.253 1.712l.86-1.529h-2.332l-3.744 6.421c-.061-.061-.123-.123-.246-.123l-.184.184c-1.657 1.957-3.314 3.485-4.357 3.485-.491 0-.798-.367-.246-1.284l3.744-6.543h-1.35c.061-.978-.92-2.323-2.455-2.323-1.227 0-3.007.978-3.989 2.69l-2.394 4.158a5.655 5.655 0 0 0-.49-.305l-.185.183c-1.657 1.957-3.743 3.485-6.014 3.485-1.596 0-2.578-1.589-1.166-3.974l.675-1.162c.43.061.86.122 1.35.122 2.455 0 5.278-1.284 7.12-4.464.674-1.161.92-2.201.92-3.118 0-2.079-1.35-3.486-3.069-3.486-1.288 0-2.823.917-3.866 2.691l-3.621 6.237c-1.35-.734-2.087-2.018-2.087-3.302 0-1.101.491-2.14 1.473-2.935l-.736-1.345c-1.657 1.161-2.394 2.751-2.394 4.341 0 1.835 1.044 3.608 2.946 4.586l-.675 1.223c-1.657 2.813-.675 5.932 2.64 5.932 2.577 0 4.54-1.162 6.136-2.691-.49 1.468.246 2.691 1.903 2.691.92 0 2.086-.612 3.252-1.529.123.917.86 1.529 2.026 1.529 1.104 0 2.332-.673 3.498-1.712l-.86 1.467h2.333l3.559-6.176c3.56-4.464 5.155-3.852 4.112-2.14l-3.007 5.259c-.982 1.712-.307 3.302 1.596 3.302 1.227 0 2.638-.856 3.989-2.079-.307 1.284.306 2.079 1.473 2.079 1.104 0 2.393-.917 3.436-1.896l-1.288 2.202c-3.13.917-5.156 2.201-5.156 3.974 0 2.202 3.437 2.691 5.094-.183l1.78-3.058c1.964-.611 3.866-1.834 5.892-3.791-.307 3.241 3.989 3.975 6.628.673h.491c.859 0 2.025-.306 3.068-.918l-1.534 2.691h2.332l3.559-6.176c3.56-4.464 5.156-3.852 4.112-2.14l-3.007 5.259c-.982 1.712-.307 3.302 1.596 3.302 1.902 0 4.112-2.079 6.076-4.281-.062-.183-.491-.55-.798-.672Zm-57.935-8.684c.675-1.161 1.473-1.712 2.087-1.712.86 0 1.289.551 1.289 1.407 0 2.14-2.64 6.053-6.26 6.053h-.491l3.375-5.748Zm8.224 9.05c-1.411 2.202-2.823 3.241-3.743 3.241-.491 0-.798-.367-.246-1.284l3.253-5.626c1.227-2.14 3.743-1.589 2.577.49l-1.84 3.179Zm17.675 8.439c-.491.856-1.289.734-1.289.122 0-.611.553-1.284 2.332-1.956l-1.043 1.834Zm15.711-8.683h-.123c-.736 0-1.35.611-1.35 1.406 0 .306.061.551.246.795v.061c-1.105 1.896-3.744 1.529-2.394-.917l1.78-3.057 1.105-1.896c1.657-2.752 3.866-1.651 2.454.734l-1.718 2.874ZM199.088 203.688c-.123-.366-.552-.733-.859-.795l-.184.184c-.86.978-1.903 1.896-2.824 2.507.737-2.201.553-5.626 2.026-8.561l-1.719-.917c-.982 1.345-3.068 4.342-5.155 6.787l-.184.184c-1.657 1.957-3.314 3.485-4.357 3.485-.491 0-.982-.489-.982-1.589v-.979c1.657.184 3.375-.856 4.48-2.752l.614-1.1c2.148-3.73-1.351-4.953-3.744-2.752l3.314-5.748h-2.332l-6.628 11.496a1.873 1.873 0 0 0-.43-.306l-.184.184c-1.657 1.957-3.805 3.485-5.462 3.485-1.411 0-2.271-.917-1.227-2.751l2.393-4.159c1.35-2.323 3.744-1.895 2.332.49l-.307.55h1.903l.307-.55c1.227-2.141.061-3.73-1.841-3.73-1.903 0-3.376.978-4.358 2.69l-2.271 3.914c-.061 0-.122-.062-.122-.062l-.184.184c-1.657 1.957-3.314 3.485-4.358 3.485-.491 0-.798-.366-.245-1.284l4.971-8.683h-2.332l-4.112 7.216c-1.78 1.59-3.13 2.507-3.56 2.323-.552-.244 0-1.1.307-1.589l4.542-7.889h-2.332l-4.542 7.766c-.491.428-1.043.856-1.473 1.223.737-2.201.553-5.626 2.025-8.561l-1.718-.917c-.982 1.345-6.321 8.439-8.469 10.885.184.305.552.55.859.795 1.35-1.529 5.769-7.216 6.567-8.317-.921 2.385-.43 6.727-2.639 6.727-.798 0-1.105-.856-1.105-.856l-1.473.733s.43 1.896 2.578 1.896c.245 0 .429 0 .675-.061h.061c1.166-.184 2.332-.673 3.437-1.468 0 .918.552 1.529 1.534 1.529 1.289 0 2.701-1.162 3.805-2.201-.245 1.223.491 2.201 1.964 2.201 1.473 0 3.069-1.162 4.603-2.691 0 1.529 1.227 2.691 3.13 2.691 1.902 0 3.744-1.04 5.401-2.446l-1.289 2.263h2.332l2.639-4.587v1.835c0 1.957.368 2.996 2.271 2.996 1.902 0 4.111-2.079 6.075-4.28 1.351-1.529 2.455-3.119 3.314-4.22-.92 2.385-.429 6.727-2.639 6.727-.797 0-1.104-.856-1.104-.856l-1.473.734s.429 1.895 2.577 1.895c.246 0 .43 0 .676-.061h.061c2.332-.428 4.725-2.324 6.444-4.342Zm-15.466-1.834.675-1.162c2.701-3.73 4.542-2.69 3.683-1.284l-1.105 1.896c-.675 1.223-2.7 2.079-3.253.55ZM199.026 205.278a1.36 1.36 0 0 0-1.35 1.345c0 .734.553 1.346 1.35 1.346.737 0 1.351-.551 1.351-1.346a1.36 1.36 0 0 0-1.351-1.345ZM199.149 204.36h2.332l7.304-12.658h-2.333l-7.303 12.658ZM49.22 169.751c0 .183-.062.366-.123.55a1.332 1.332 0 0 1-.307.489 3.408 3.408 0 0 1-.491.367c-.184.061-.43.122-.675.122-.307 0-.552-.061-.798-.183-.245-.122-.49-.245-.675-.428-.184-.184-.245-.367-.368-.612-.062-.244-.123-.489-.123-.795 0-.55.123-.978.307-1.467.184-.428.43-.856.798-1.162.123-.122.307-.306.49-.428.185-.122.369-.245.553-.306.184-.061.307-.183.43-.244.122-.062.184-.062.245-.123l.86 1.223c-.123.061-.308.123-.492.245-.184.061-.368.183-.552.306-.184.122-.307.305-.43.489a1.029 1.029 0 0 0-.184.611c.43 0 .737.123 1.044.367.368.184.49.551.49.979Zm4.848 0c0 .183-.061.366-.123.55a1.33 1.33 0 0 1-.307.489 3.408 3.408 0 0 1-.49.367c-.185.061-.43.122-.676.122-.307 0-.552-.061-.798-.183-.245-.122-.49-.245-.675-.428-.122-.184-.245-.367-.368-.612-.061-.244-.123-.489-.123-.795 0-.55.123-.978.307-1.467.184-.428.43-.856.798-1.162.123-.122.307-.306.491-.428s.368-.245.552-.306c.184-.061.307-.183.43-.244.123-.062.184-.062.245-.123l.86 1.223c-.123.061-.307.123-.491.245-.184.061-.369.183-.553.306-.184.122-.307.305-.43.489a1.03 1.03 0 0 0-.183.611c.43 0 .736.123 1.043.367.307.184.49.551.49.979ZM216.763 205.767c0-.183.061-.367.122-.55.062-.184.184-.367.307-.489.123-.123.307-.245.491-.367a2.22 2.22 0 0 1 .675-.122c.307 0 .553.061.798.183.246.122.491.245.675.428.184.183.246.367.368.612.062.244.123.489.123.794 0 .551-.123.979-.307 1.468-.184.428-.429.856-.798 1.162a3.414 3.414 0 0 1-.491.428c-.184.122-.368.244-.552.306-.184.061-.307.183-.429.244-.123.061-.185.061-.246.123l-.859-1.223c.123-.062.307-.123.491-.245.184-.061.368-.183.552-.306.184-.122.307-.306.43-.489s.184-.367.184-.611c-.43 0-.737-.123-1.043-.367-.307-.184-.491-.551-.491-.979Zm-4.787 0c0-.183.061-.367.122-.55.062-.184.184-.367.307-.489.123-.123.307-.245.491-.367a2.22 2.22 0 0 1 .675-.122c.307 0 .553.061.798.183.246.122.491.245.675.428.123.183.246.367.368.612.062.244.123.489.123.794 0 .551-.123.979-.307 1.468-.184.428-.429.856-.798 1.162-.122.122-.306.306-.49.428-.185.122-.369.244-.553.306-.184.061-.307.183-.429.244-.123.061-.185.061-.246.123l-.859-1.223c.184-.062.307-.123.491-.245.184-.061.368-.183.552-.306.184-.122.307-.306.43-.489s.184-.367.184-.611c-.43 0-.737-.123-1.043-.367-.369-.184-.491-.551-.491-.979Z" fill="#fff"></path></svg><svg fill="none" id="burger" viewBox="0 0 40 36"><path d="M37.743 23.85H2.257C.997 23.85 0 24.864 0 26.029v1.773c0 1.165.997 2.128 2.257 2.128h.525v.506c0 2.786 2.362 5.015 5.197 5.015h24.042c2.887 0 5.197-2.28 5.197-5.015v-.506h.525c1.207 0 2.257-.963 2.257-2.178v-1.773c0-1.115-.997-2.128-2.257-2.128Zm-2.047 6.585c0 1.925-1.628 3.495-3.622 3.495H7.927c-1.995 0-3.623-1.57-3.623-3.495v-.506h31.392v.506Zm2.73-2.684c0 .354-.316.658-.683.658H2.257c-.367 0-.682-.304-.682-.658v-1.773c0-.304.315-.608.682-.608h35.538c.368 0 .683.304.683.659v1.722h-.053ZM8.504 19.747l2.835 2.026 2.887-2.026 2.887 2.026L20 19.747l2.835 2.026 2.887-2.026 2.887 2.026 2.887-2.026 2.887 2.026 3.307-2.38-.892-1.216-2.415 1.672-2.887-2.026-2.887 2.026-2.887-2.026-2.887 2.026L20 17.823l-2.887 2.026-2.887-2.026-2.887 2.026-2.835-2.026-2.887 2.026-2.415-1.672-.945 1.216 3.36 2.38 2.887-2.026ZM37.218 16.303c0-.304.052-1.317 0-1.52C36.85 6.883 29.29.55 20 .55S3.097 6.882 2.73 14.784v1.52h34.488ZM20 2.07c8.399 0 15.328 5.673 15.643 12.714H4.304C4.672 7.743 11.601 2.07 20 2.07Z" fill="#81B3D2"></path><path d="M20 9.161c.58 0 1.05-.453 1.05-1.013 0-.56-.47-1.013-1.05-1.013-.58 0-1.05.454-1.05 1.013 0 .56.47 1.013 1.05 1.013ZM15.8 6.679c.58 0 1.05-.454 1.05-1.013 0-.56-.47-1.013-1.05-1.013-.58 0-1.05.453-1.05 1.013 0 .56.47 1.013 1.05 1.013ZM24.2 6.679c.58 0 1.05-.454 1.05-1.013 0-.56-.47-1.013-1.05-1.013-.58 0-1.05.453-1.05 1.013 0 .56.47 1.013 1.05 1.013Z" fill="#81B3D2"></path></svg><svg fill="none" id="description-corner" viewBox="0 0 768 37"><path fill-rule="evenodd" clip-rule="evenodd" d="M0 0h384v37L0 0ZM768 0H384v37L768 0Z" fill="#fff"></path></svg><svg fill="none" id="gift" viewBox="0 0 32 38"><path d="M30.578 11.206H18.184c6.908-3.444 7.467-5.622 7.213-6.838-.559-1.975-2.845-3.495-4.978-2.685-2.794 1.064-3.556 5.218-4.317 8.206-.966-3.04-1.88-6.889-4.064-8.864-.61-.557-1.524-1.114-2.895-1.013-2.032.203-4.927 2.684-3.708 5.47 1.117 2.685 4.825 4.407 7.314 5.775H1.422C.61 11.257 0 11.915 0 12.675v5.672c0 .811.66 1.419 1.422 1.419h.153V38h28.952V19.766h.05c.813 0 1.423-.659 1.423-1.418v-5.673c0-.81-.66-1.47-1.422-1.47ZM21.232 2.95c1.066-.152 2.489.658 2.641 1.62.203 1.368-1.676 2.634-2.54 3.192-1.27.86-2.489 1.316-3.657 2.026.407-1.874 1.27-6.534 3.556-6.838ZM9.752 7.914c-1.117-.76-3.25-2.23-3.2-3.9.051-1.824 2.896-3.293 4.42-1.925 1.93 1.671 2.844 5.571 3.555 8.306-1.625-.81-3.15-1.418-4.775-2.481ZM12.75 36.48H3.048V19.765h9.701V36.48Zm0-18.235H1.524v-5.52h11.225v5.52Zm5.08 18.235h-3.607V12.724h3.607V36.48Zm11.174 0h-9.65V19.765h9.701V36.48h-.05Zm1.473-18.235H19.352v-5.52h11.124v5.52Z" fill="#81B3D2"></path></svg><svg fill="none" id="house" viewBox="0 0 40 38"><path d="M15.902 33.804h8.353V21.646h-8.353v12.158Zm6.839-1.475h-5.325V23.12h5.273v9.208h.052Z" fill="#81B3D2"></path><path d="m38.404 20.628 1.096-1.069-5.169-5.036V.788h-7.205v6.715L19.974.585.5 19.61l1.096 1.069L5.67 16.71V35.94H3.633v1.475h33.361V35.94h-2.663V16.66l4.073 3.968ZM28.64 2.314h4.124v10.734L28.641 9.03V2.314Zm4.176 33.575H7.235V15.185L19.974 2.72l12.791 12.464v20.704h.052Z" fill="#81B3D2"></path><path d="M16.058 14.422c0 2.187 1.828 3.968 4.02 3.968 2.245 0 4.073-1.781 4.073-3.968 0-2.188-1.828-3.918-4.073-3.918s-4.02 1.73-4.02 3.918Zm4.02-2.544c1.41 0 2.61 1.12 2.61 2.544 0 1.373-1.148 2.543-2.61 2.543-1.41 0-2.61-1.119-2.61-2.543 0-1.374 1.2-2.544 2.61-2.544ZM10.89 21.646H9.322v1.984h1.566v-1.984ZM13.97 21.646h-1.566v1.984h1.566v-1.984ZM10.89 24.698H9.322v1.983h1.566v-1.983ZM13.97 24.698h-1.566v1.983h1.566v-1.983ZM27.544 21.646h-1.566v1.984h1.566v-1.984ZM30.677 21.646H29.11v1.984h1.566v-1.984ZM27.544 24.698h-1.566v1.983h1.566v-1.983ZM30.677 24.698H29.11v1.983h1.566v-1.983Z" fill="#81B3D2"></path></svg><svg fill="currentColor" id="htmlacademy" viewBox="0 0 27 35"><path d="M13.6 0h-.1L0 1.4v24.7l13.5 8 13.4-8V1.4L13.6 0ZM25 12.1 13.5 5.3v-.1h-.1l-.1-.1v.1L1.9 12.1v-9l11.5-1.2L25 3.1v9ZM13.4 6.8l11.5 6.7-4.5 2.6-7.1-4.2v1.4l5.9 3.5-.9.5-5-3v1.4l3.8 2.3-.8.5-3-1.8v1.4l1.9 1.1-1.8 1.1L2 13.6l11.4-6.8ZM1.9 15.1l11.4 6.8v1l-7.9-4.7v1.4l8 4.8v1.1l-8-4.7v1.4l8 4.8 8.1-4.9v-5.2l3.4-2v10l-11.5 6.9L1.9 25v-9.9Z"></path></svg><svg class="like__icon--emoji" fill="none" id="like-icon" viewBox="0 0 23 21"><path opacity=".3" d="m12.964 3.78-.628 3.045-.627 2.625h9.096v2.205L17.773 18.9h-9.41V8.4l4.6-4.62ZM2.09 10.5v8.4-8.4ZM13.8 0 6.9 6.93c-.418.315-.627.84-.627 1.47v10.5c0 1.155.94 2.1 2.09 2.1h9.41c.836 0 1.568-.525 1.881-1.26l3.137-7.455c.104-.21.104-.525.104-.735v-2.1H23c0-1.155-.94-2.1-2.09-2.1h-6.587l1.045-4.83v-.315c0-.42-.209-.84-.418-1.155L13.8 0ZM4.182 8.4H0V21h4.182V8.4Z" fill="#000"></path></svg><svg fill="none" id="menu-close" viewBox="0 0 23 23"><path d="M22.2 2.8 19.4 0l-8.3 8.3L2.8 0 0 2.8l8.3 8.3L0 19.4l2.8 2.8 8.3-8.3 8.3 8.3 2.8-2.8-8.3-8.3 8.3-8.3Z" fill="#fff"></path></svg><svg fill="none" id="sedona-text" viewBox="0 0 229 39"><path d="M27.316 26.637c0 .25-.05.452-.05.653-.251 2.01-.903 3.97-1.955 5.78a11.456 11.456 0 0 1-4.26 4.221c-.652.302-1.354.553-2.055.804-.702.201-1.404.402-2.105.553-.602.1-1.153.201-1.755.252-.601.05-1.152.1-1.704.1h-.601a19.727 19.727 0 0 1-6.867-1.558C3.76 36.437 1.754 35.18 0 33.572l4.661-7.488.1.1.1.1a24.24 24.24 0 0 0 3.56 3.217c1.302.955 2.856 1.508 4.56 1.608.05 0 .1 0 .15.05.05 0 .1.051.15.051.051 0 .101 0 .151.05.05 0 .1.05.15.05.151 0 .301 0 .502-.05.15 0 .35-.05.501-.1.601-.1 1.203-.352 1.754-.704.552-.352 1.003-.754 1.303-1.306.05-.101.1-.151.1-.252.05-.1.1-.15.1-.251.101-.251.151-.503.151-.754.05-.251.05-.452.05-.653 0-1.056-.45-1.96-1.353-2.664a11.45 11.45 0 0 0-2.957-1.659c-.451-.15-.852-.301-1.203-.402-.4-.1-.752-.2-1.103-.25-.05 0-.1 0-.1-.051-.05 0-.1-.05-.1-.05a17.415 17.415 0 0 1-5.363-2.262C4.21 18.847 3.057 17.39 2.406 15.43l-.3-1.206c-.101-.452-.151-.854-.201-1.357-.05-.15-.05-.302-.05-.452v-.453c0-.301 0-.603.05-.955 0-.301.05-.603.15-.954.1-.754.3-1.558.601-2.312A8.31 8.31 0 0 1 3.71 5.629C4.962 3.569 6.566 2.11 8.52 1.206 10.375.452 12.43 0 14.535 0c.501 0 1.002.05 1.554.1.5.05 1.052.151 1.604.202 1.403.25 2.806.603 4.16 1.155a26.973 26.973 0 0 1 3.809 1.91l-3.208 7.187a28.007 28.007 0 0 0-3.308-2.06c-1.153-.604-2.406-.855-3.759-.855h-.501c-.902.1-1.704.503-2.506 1.206-.752.704-1.153 1.408-1.153 2.212 0 .1 0 .251.05.351 0 .101.05.252.15.352.1.252.2.503.401.754.2.252.401.453.652.654.451.351 1.053.653 1.854.954.802.302 1.654.553 2.557.855.751.2 1.453.402 2.155.553.701.15 1.303.351 1.754.502 2.155.754 3.81 2.06 4.912 3.87 1.102 1.81 1.654 3.72 1.704 5.73v.25c-.05.252-.05.503-.1.755Zm30.072 3.116v8.342H34.633V.905h22.755v8.141h-12.78v6.484h12.028v7.94H44.607v6.283h12.78Zm38.392-1.458c-1.203 2.563-2.907 4.674-5.162 6.282a16.313 16.313 0 0 1-5.915 2.564c-2.155.452-4.31.753-6.465.854-.602.05-1.253.05-1.855.05H64.456V.855h12.58c.602 0 1.203 0 1.754.05 2.105.1 4.16.402 6.215.854a14.634 14.634 0 0 1 5.614 2.563c2.155 1.508 3.859 3.518 5.062 6.031 1.203 2.513 1.904 5.076 2.055 7.69.05.25.05.452.05.703v1.508a21.36 21.36 0 0 1-2.005 8.041Zm-8.22-9.197c0-.15 0-.302-.05-.452a12.73 12.73 0 0 0-1.052-4.272c-.602-1.357-1.454-2.463-2.556-3.317A6.884 6.884 0 0 0 81.195 9.7c-1.002-.252-2.005-.352-3.057-.402h-3.759v20.505c.1 0 .25 0 .4.05.151 0 .251.05.402.05.15 0 .3 0 .4.05.1 0 .251.05.351.05.401 0 .802 0 1.203-.05.451 0 .852-.05 1.203-.1 1.003-.1 2.005-.251 2.957-.503.953-.25 1.855-.703 2.606-1.206 1.254-.904 2.156-2.11 2.757-3.668.602-1.558.902-3.167.902-4.825v-.553Zm54.932 1.96c0 .402-.05.804-.15 1.206-.1.804-.201 1.608-.451 2.413-.201.804-.501 1.608-.802 2.362-1.654 3.769-4.16 6.684-7.618 8.795-3.459 2.06-7.067 3.116-10.877 3.116-.25 0-.551 0-.801-.05-.251 0-.502-.05-.802-.05-1.304-.101-2.607-.353-3.91-.704a20.084 20.084 0 0 1-3.759-1.458c-3.258-1.709-5.814-4.171-7.668-7.338-1.855-3.166-2.807-6.483-2.807-9.9 0-.503 0-1.005.05-1.508.05-.503.1-1.055.251-1.558.2-1.005.451-2.01.802-3.066.35-1.005.751-2.01 1.303-2.965 1.804-3.317 4.26-5.83 7.468-7.589 3.157-1.759 6.515-2.613 9.974-2.613.451 0 .952 0 1.403.05.501.05.952.1 1.403.1a21.556 21.556 0 0 1 8.32 3.015c2.757 1.81 4.912 4.172 6.416 7.138 1.503 2.965 2.255 6.08 2.255 9.297v1.307Zm-10.124-2.11c0-.252-.05-.453-.05-.704a14.214 14.214 0 0 0-1.504-4.825 9.008 9.008 0 0 0-3.358-3.619 11.453 11.453 0 0 0-1.153-.502c-.401-.151-.751-.302-1.152-.402a9.23 9.23 0 0 0-1.153-.201c-.401-.05-.752-.1-1.153-.1-1.955 0-3.809.602-5.463 1.859a9.876 9.876 0 0 0-3.509 4.975c-.05.1-.05.15-.1.251 0 .1-.05.151-.05.252l-.301 1.055c-.1.352-.15.754-.25 1.156-.05.251-.05.553-.1.804 0 .252-.051.503-.051.804v.453c0 .15 0 .301.051.452.1 2.06.751 4.02 1.904 5.88 1.153 1.86 2.707 3.066 4.762 3.669.25.1.451.15.701.2l.752.152c.251.05.451.05.702.1.25 0 .451.05.701.05 2.055 0 3.91-.603 5.564-1.86 1.654-1.205 2.857-2.864 3.558-4.924l.301-1.206c.1-.453.15-.855.201-1.307.05-.252.05-.553.1-.804 0-.252.05-.503.05-.754v-.905Zm43.855 19.147-14.084-19.198c-.401-.452-.751-1.005-1.102-1.659-.351-.653-.702-1.306-1.003-2.01a19.608 19.608 0 0 1-.651-1.508 17.994 17.994 0 0 0-.602-1.357c.201 1.207.351 2.413.451 3.67a46.72 46.72 0 0 1 .151 3.718v18.344h-9.774V.905h9.774l13.983 19.098c.351.552.702 1.105 1.003 1.708.351.603.651 1.207.952 1.86.251.502.451 1.005.702 1.508.25.502.451 1.005.701 1.457-.05-.452-.1-.854-.15-1.206l-.15-1.206a18.192 18.192 0 0 1-.151-2.413c-.05-.804-.05-1.658-.05-2.512V.954h9.724v37.19h-9.724v-.05Zm42.653 0-1.855-6.684h-14.334l-1.905 6.735h-10.024L203.489.955h12.63L229 38.145h-10.124v-.05Zm-7.769-26.184c-.2-.603-.401-1.206-.551-1.86-.151-.653-.301-1.256-.451-1.91-.101-.25-.151-.452-.151-.653-.05-.2-.1-.402-.1-.603l-.15.603c-.05.201-.101.453-.151.654-.05.1-.05.15-.05.2 0 .051 0 .152-.05.202-.1.603-.251 1.156-.401 1.709l-.451 1.658-3.759 12.313h10.074l-3.809-12.313Z" fill="#fff"></path></svg><svg fill="currentColor" id="tg" viewBox="0 0 22 18"><path d="m21.44 1.622-3.17 14.944c-.239 1.055-.862 1.317-1.748.82l-4.828-3.557-2.33 2.24c-.258.259-.473.474-.97.474l.347-4.917 8.948-8.086c.39-.347-.084-.54-.604-.192L6.022 10.314 1.26 8.823C.224 8.5.205 7.787 1.476 7.29L20.103.113c.863-.323 1.617.192 1.336 1.51Z"></path></svg><svg fill="none" id="tick" viewBox="0 0 22 16"><path d="M21.805 1.307 20.76.222c-.285-.296-.856-.296-1.141 0L8.298 11.957 2.403 5.843c-.286-.296-.856-.296-1.142 0L.214 6.928c-.285.295-.285.887 0 1.183l7.419 7.692c.19.197.38.197.57.197.191 0 .381-.099.571-.197L21.615 2.49c.476-.296.476-.789.19-1.183Z" fill="#333"></path></svg><svg fill="none" id="toggle" viewBox="0 0 23 22"><path d="M22.9 0H0v4h22.9V0ZM22.9 9H0v4h22.9V9ZM22.9 18H0v4h22.9v-4Z" fill="#81B3D2"></path></svg><svg fill="none" id="video-polygon" viewBox="0 0 48 54"><path d="M48 27 0 54V0l48 27Z" fill="#fff" fill-opacity=".7"></path></svg><svg viewBox="0 0 166 26" fill="currentColor" id="visitsedona"><path d="M6.127 11.195h-1.87l-.755 3.234H1.255l.756-3.234H.457l.462-2.037h1.575l.525-2.226H1.507l.462-2.037h1.533l.735-3.024h2.226l-.714 3.024h1.869l.735-3.024h2.226l-.714 3.024h1.512l-.525 2.037h-1.47l-.525 2.226h1.449l-.504 2.037H8.374l-.756 3.234H5.37l.756-3.234ZM4.74 9.158H6.61l.525-2.226h-1.87l-.524 2.226Zm13.322.273.378 2.499h.105l.42-2.52L21.78.8h3.024l-5.46 14.805h-2.058L11.784.8h3.339l2.94 8.631ZM26.16.8h2.877v14.7H26.16V.8Zm12.036 10.752c0-.448-.168-.812-.504-1.092-.322-.28-.735-.532-1.24-.756a26.28 26.28 0 0 0-1.616-.714 9.575 9.575 0 0 1-1.617-.903 4.949 4.949 0 0 1-1.24-1.344c-.321-.532-.482-1.211-.482-2.037 0-.714.119-1.33.357-1.848a3.513 3.513 0 0 1 1.008-1.323c.448-.35.973-.609 1.575-.777a7.495 7.495 0 0 1 2.016-.252c.854 0 1.659.077 2.415.231.756.14 1.379.35 1.869.63l-.903 2.415c-.308-.196-.77-.371-1.386-.525a7.56 7.56 0 0 0-1.995-.252c-.672 0-1.19.133-1.554.399-.35.266-.525.623-.525 1.071 0 .42.16.77.483 1.05.336.28.749.539 1.239.777.504.238 1.043.483 1.617.735.588.252 1.127.56 1.617.924.504.35.917.791 1.239 1.323.336.518.504 1.169.504 1.953s-.133 1.463-.4 2.037a3.719 3.719 0 0 1-1.091 1.407c-.462.378-1.03.658-1.701.84a8.182 8.182 0 0 1-2.184.273c-1.05 0-1.974-.098-2.772-.294-.798-.196-1.386-.392-1.764-.588l.924-2.457c.154.084.35.175.588.273.252.098.532.189.84.273.308.084.63.154.966.21.35.056.707.084 1.07.084.855 0 1.506-.14 1.954-.42.462-.294.693-.735.693-1.323ZM43.283.8h2.877v14.7h-2.877V.8Zm16.132 2.562H55.13V15.5h-2.877V3.362h-4.305V.8h11.466v2.562Zm7.84 8.19c0-.448-.168-.812-.504-1.092-.322-.28-.735-.532-1.239-.756a26.28 26.28 0 0 0-1.617-.714 9.575 9.575 0 0 1-1.617-.903 4.947 4.947 0 0 1-1.239-1.344c-.322-.532-.483-1.211-.483-2.037 0-.714.12-1.33.357-1.848a3.513 3.513 0 0 1 1.008-1.323c.448-.35.973-.609 1.575-.777a7.495 7.495 0 0 1 2.016-.252c.854 0 1.66.077 2.415.231.756.14 1.38.35 1.87.63l-.904 2.415c-.308-.196-.77-.371-1.386-.525a7.56 7.56 0 0 0-1.995-.252c-.672 0-1.19.133-1.554.399-.35.266-.525.623-.525 1.071 0 .42.161.77.483 1.05.336.28.75.539 1.24.777.503.238 1.042.483 1.616.735.588.252 1.127.56 1.617.924.504.35.917.791 1.24 1.323.335.518.503 1.169.503 1.953S70 12.7 69.733 13.274a3.719 3.719 0 0 1-1.092 1.407c-.462.378-1.029.658-1.7.84a8.182 8.182 0 0 1-2.185.273c-1.05 0-1.974-.098-2.772-.294-.798-.196-1.386-.392-1.764-.588l.924-2.457c.154.084.35.175.588.273.252.098.532.189.84.273.308.084.63.154.966.21.35.056.707.084 1.071.084.854 0 1.505-.14 1.953-.42.462-.294.693-.735.693-1.323ZM72.05.8h8.715v2.562h-5.838v3.423h5.313v2.562h-5.313v3.591h5.943V15.5h-8.82V.8Zm10.972 0c.294-.042.623-.077.987-.105a30.255 30.255 0 0 1 2.289-.084A27.56 27.56 0 0 1 87.305.59c1.302 0 2.415.182 3.339.546.924.364 1.673.875 2.247 1.533.574.658.994 1.442 1.26 2.352.266.91.399 1.911.399 3.003 0 .994-.126 1.953-.378 2.877a6.51 6.51 0 0 1-1.26 2.457c-.588.714-1.365 1.288-2.331 1.722-.952.434-2.135.651-3.55.651-.223 0-.524-.007-.902-.021a38.12 38.12 0 0 1-1.155-.063c-.392-.014-.77-.035-1.134-.063a7.843 7.843 0 0 1-.82-.063V.8Zm4.515 2.352c-.308 0-.623.007-.945.021a5.638 5.638 0 0 0-.693.063v9.849c.056.014.147.028.273.042.14 0 .287.007.44.021.155 0 .302.007.442.021h.315c.812 0 1.484-.14 2.016-.42a3.42 3.42 0 0 0 1.28-1.155 4.498 4.498 0 0 0 .673-1.638c.126-.63.189-1.274.189-1.932 0-.574-.056-1.148-.168-1.722a4.234 4.234 0 0 0-.63-1.575 3.4 3.4 0 0 0-1.218-1.134c-.518-.294-1.176-.441-1.974-.441Zm8.62 4.998c0-2.45.538-4.333 1.616-5.649 1.078-1.33 2.618-1.995 4.62-1.995 1.05 0 1.967.182 2.751.546a5.182 5.182 0 0 1 1.953 1.554c.518.672.903 1.477 1.155 2.415s.378 1.981.378 3.129c0 2.45-.546 4.34-1.638 5.67-1.078 1.316-2.611 1.974-4.599 1.974-1.064 0-1.988-.182-2.772-.546a5.182 5.182 0 0 1-1.953-1.554c-.504-.672-.882-1.477-1.134-2.415-.252-.938-.378-1.981-.378-3.129Zm3.023 0c0 .742.063 1.428.19 2.058.125.616.314 1.148.566 1.596.266.448.602.798 1.008 1.05s.889.378 1.449.378c1.022 0 1.813-.399 2.373-1.197.56-.798.84-2.093.84-3.885 0-.714-.063-1.379-.189-1.995a5.361 5.361 0 0 0-.546-1.617 2.813 2.813 0 0 0-.987-1.071c-.406-.266-.903-.399-1.491-.399-1.022 0-1.813.413-2.373 1.239-.56.812-.84 2.093-.84 3.843Zm15.161-.315-1.155-2.31h-.105l.336 2.31V15.5h-2.73V.695h2.1l5.565 7.833 1.113 2.247h.105l-.336-2.247V.8h2.73v14.805h-2.1l-5.523-7.77Zm17.393 4.41h-4.515l-1.113 3.255h-2.877L128.52.695h2.121l5.292 14.805h-3.024l-1.176-3.255Zm-3.78-2.31h3.15l-1.092-3.276-.441-2.31h-.105l-.441 2.331-1.071 3.255Z"></path></svg><svg fill="currentColor" id="vk" viewBox="0 0 24 14"><path fill-rule="evenodd" clip-rule="evenodd" d="M23.45.948c.166-.546 0-.948-.795-.948H20.03c-.668 0-.976.347-1.143.73 0 0-1.335 3.196-3.226 5.272-.612.602-.89.793-1.224.793-.167 0-.418-.191-.418-.738V.948c0-.656-.184-.948-.74-.948H9.151c-.417 0-.668.304-.668.593 0 .621.946.765 1.043 2.513v3.798c0 .833-.153.984-.487.984-.89 0-3.055-3.211-4.34-6.885C4.45.288 4.198 0 3.527 0H.9C.15 0 0 .347 0 .73c0 .682.89 4.07 4.145 8.551C6.315 12.341 9.37 14 12.153 14c1.669 0 1.875-.368 1.875-1.003v-2.313c0-.737.158-.884.687-.884.39 0 1.057.192 2.615 1.667C19.11 13.216 19.403 14 20.405 14h2.625c.75 0 1.126-.368.91-1.096-.238-.724-1.088-1.775-2.215-3.022-.612-.71-1.53-1.475-1.809-1.858-.389-.491-.278-.71 0-1.147 0 0 3.2-4.426 3.533-5.929h.001Z"></path></svg><svg fill="currentColor" id="youtube" viewBox="0 0 20 14"><path d="M17.181 0H2.813C1.306 0 0 1.3 0 2.8v8.3C0 12.7 1.306 14 2.813 14h14.368c1.608 0 2.814-1.3 2.814-2.8V2.8c.1-1.5-1.206-2.8-2.814-2.8ZM7.033 10.4V3.6L13.866 7l-6.833 3.4Z"></path></svg></svg>